# xmcd
#
# Track frame offsets: 
#        150
#        16643
#        30276
#        49999
#        70007
#        88667
#        103409
#        123701
#        145786
#        159346
#        178342
#        197144
#        218041
#
# Disc length: 3085 seconds
#
# Revision: 0
# Processed by: cddbd v1.5.2PL0 Copyright (c) Steve Scherf et al.
# Submitted via: ExactAudioCopy v0.99pb5
#
DISCID=b30c0b0d
DTITLE=Brandon Rhyder - Head Above Water
DYEAR=2010
DGENRE=Country
TTITLE0=Rock Angel
TTITLE1=You Can Count On Me
TTITLE2=You Burn Me
TTITLE3=Like It Was The Last Time
TTITLE4=Last Swan Song
TTITLE5=It's The Country That Saves Me
TTITLE6=Head Above Water
TTITLE7=Ultimate Deceiver
TTITLE8=I'll Take You
TTITLE9=You Like Me Again
TTITLE10=Battery
TTITLE11=Breathe
TTITLE12=Hidden Track
EXTD=
EXTT0=
EXTT1=
EXTT2=
EXTT3=
EXTT4=
EXTT5=
EXTT6=
EXTT7=
EXTT8=
EXTT9=
EXTT10=
EXTT11=
EXTT12=
PLAYORDER=
